<mxfile host="app.diagrams.net" agent="Mozilla/5.0 (Macintosh; Intel Mac OS X 10_15_7) AppleWebKit/537.36 (KHTML, like Gecko) Chrome/133.0.0.0 Safari/537.36" version="26.0.16">
  <diagram name="Page-1" id="AIPoxRdhrtce3UdJt4KN">
    <mxGraphModel dx="1026" dy="684" grid="0" gridSize="10" guides="1" tooltips="1" connect="1" arrows="1" fold="1" page="1" pageScale="1" pageWidth="827" pageHeight="1169" math="0" shadow="0">
      <root>
        <mxCell id="0" />
        <mxCell id="1" parent="0" />
        <mxCell id="uWxkei3LBMc92IfPlKmw-2" value="&lt;u&gt;External System API Call&lt;/u&gt;&lt;div&gt;- Submit Order Application&lt;/div&gt;" style="rounded=0;whiteSpace=wrap;html=1;" parent="1" vertex="1">
          <mxGeometry x="32" y="58.75" width="216" height="60" as="geometry" />
        </mxCell>
        <mxCell id="uWxkei3LBMc92IfPlKmw-4" value="Order Service" style="rounded=0;whiteSpace=wrap;html=1;fillColor=#fff2cc;strokeColor=#d6b656;" parent="1" vertex="1">
          <mxGeometry x="490" y="58.75" width="121" height="57.5" as="geometry" />
        </mxCell>
        <mxCell id="uWxkei3LBMc92IfPlKmw-7" value="1. External Organisations use API calls to create Order" style="text;html=1;align=center;verticalAlign=middle;whiteSpace=wrap;rounded=0;" parent="1" vertex="1">
          <mxGeometry x="20.5" y="20" width="239" height="30" as="geometry" />
        </mxCell>
        <mxCell id="uWxkei3LBMc92IfPlKmw-12" value="" style="endArrow=classic;startArrow=classic;html=1;rounded=0;" parent="1" source="uWxkei3LBMc92IfPlKmw-2" target="uWxkei3LBMc92IfPlKmw-4" edge="1">
          <mxGeometry width="50" height="50" relative="1" as="geometry">
            <mxPoint x="359" y="307" as="sourcePoint" />
            <mxPoint x="409" y="257" as="targetPoint" />
          </mxGeometry>
        </mxCell>
        <mxCell id="uWxkei3LBMc92IfPlKmw-13" value="" style="endArrow=classic;startArrow=classic;html=1;rounded=0;entryX=0.5;entryY=1;entryDx=0;entryDy=0;" parent="1" target="uWxkei3LBMc92IfPlKmw-4" edge="1">
          <mxGeometry width="50" height="50" relative="1" as="geometry">
            <mxPoint x="550.5" y="191" as="sourcePoint" />
            <mxPoint x="424" y="120.28932188134524" as="targetPoint" />
          </mxGeometry>
        </mxCell>
        <mxCell id="3v4G5k-9SBofemgfU9J0-1" value="2. Order details are sent to &lt;br&gt;Order Service" style="text;html=1;align=center;verticalAlign=middle;whiteSpace=wrap;rounded=0;" parent="1" vertex="1">
          <mxGeometry x="245" y="50" width="239" height="30" as="geometry" />
        </mxCell>
        <mxCell id="3v4G5k-9SBofemgfU9J0-18" value="Delivery Workflow (Temporal)" style="rounded=0;whiteSpace=wrap;html=1;fillColor=light-dark(#FFF4C3,var(--ge-dark-color, #121212));strokeColor=light-dark(#FFD966,#FFFFFF);" parent="1" vertex="1">
          <mxGeometry x="225" y="337.5" width="222" height="77" as="geometry" />
        </mxCell>
        <mxCell id="sGVSHZmp7kZCRn9jOwzH-1" value="External Order Workflow (Temporal)" style="rounded=0;whiteSpace=wrap;html=1;fillColor=light-dark(#FFF4C3,var(--ge-dark-color, #121212));strokeColor=light-dark(#FFD966,#FFFFFF);" vertex="1" parent="1">
          <mxGeometry x="439.5" y="193" width="222" height="77" as="geometry" />
        </mxCell>
        <mxCell id="sGVSHZmp7kZCRn9jOwzH-2" value="Invoice Service" style="rounded=0;whiteSpace=wrap;html=1;fillColor=#fff2cc;strokeColor=#d6b656;" vertex="1" parent="1">
          <mxGeometry x="540.5" y="357" width="121" height="57.5" as="geometry" />
        </mxCell>
        <mxCell id="sGVSHZmp7kZCRn9jOwzH-3" value="3. Order Service initiates External Order Workflow in Temporal" style="text;html=1;align=center;verticalAlign=middle;whiteSpace=wrap;rounded=0;" vertex="1" parent="1">
          <mxGeometry x="617" y="76" width="135" height="30" as="geometry" />
        </mxCell>
        <mxCell id="sGVSHZmp7kZCRn9jOwzH-4" value="4. Generates custom invoice" style="text;html=1;align=center;verticalAlign=middle;whiteSpace=wrap;rounded=0;" vertex="1" parent="1">
          <mxGeometry x="614" y="299" width="135" height="30" as="geometry" />
        </mxCell>
        <mxCell id="sGVSHZmp7kZCRn9jOwzH-5" value="" style="endArrow=classic;startArrow=classic;html=1;rounded=0;entryX=0.5;entryY=1;entryDx=0;entryDy=0;exitX=0.574;exitY=0.017;exitDx=0;exitDy=0;exitPerimeter=0;" edge="1" parent="1" source="sGVSHZmp7kZCRn9jOwzH-2">
          <mxGeometry width="50" height="50" relative="1" as="geometry">
            <mxPoint x="611" y="345" as="sourcePoint" />
            <mxPoint x="611.5" y="270" as="targetPoint" />
          </mxGeometry>
        </mxCell>
        <mxCell id="sGVSHZmp7kZCRn9jOwzH-6" value="" style="endArrow=classic;startArrow=classic;html=1;rounded=0;entryX=0;entryY=0.5;entryDx=0;entryDy=0;" edge="1" parent="1" target="sGVSHZmp7kZCRn9jOwzH-1">
          <mxGeometry width="50" height="50" relative="1" as="geometry">
            <mxPoint x="335.5" y="337.5" as="sourcePoint" />
            <mxPoint x="336" y="262.5" as="targetPoint" />
            <Array as="points">
              <mxPoint x="336" y="232" />
            </Array>
          </mxGeometry>
        </mxCell>
        <mxCell id="sGVSHZmp7kZCRn9jOwzH-7" value="5. Start Delivery Workflow with created Order" style="text;html=1;align=center;verticalAlign=middle;whiteSpace=wrap;rounded=0;" vertex="1" parent="1">
          <mxGeometry x="289" y="193" width="135" height="30" as="geometry" />
        </mxCell>
      </root>
    </mxGraphModel>
  </diagram>
</mxfile>
